<?xml version="1.0" encoding="UTF-8"?><svg id="Layer_1" xmlns="http://www.w3.org/2000/svg" viewBox="0 0 112.66 150.22"><defs><style>.cls-1{fill:#fff;}.cls-2{fill:#231f20;}</style></defs><rect class="cls-2" x="103.28" y="140.84" width="9.38" height="9.38"/><rect class="cls-2" x="103.28" y="131.45" width="9.38" height="9.39"/><rect class="cls-2" x="103.28" y="84.51" width="9.38" height="9.38"/><rect class="cls-2" x="103.28" y="75.11" width="9.38" height="9.4"/><rect class="cls-2" x="103.28" y="65.73" width="9.38" height="9.38"/><rect class="cls-2" x="103.28" y="56.34" width="9.38" height="9.39"/><rect class="cls-2" x="103.28" y="46.95" width="9.38" height="9.39"/><rect class="cls-2" x="93.89" y="140.84" width="9.39" height="9.38"/><rect class="cls-2" x="93.89" y="131.45" width="9.39" height="9.39"/><rect class="cls-2" x="93.89" y="122.06" width="9.39" height="9.39"/><rect class="cls-2" x="93.89" y="103.28" width="9.39" height="9.39"/><rect class="cls-2" x="93.89" y="93.89" width="9.39" height="9.39"/><rect class="cls-1" x="93.89" y="84.51" width="9.39" height="9.38"/><rect class="cls-1" x="93.89" y="75.11" width="9.39" height="9.4"/><rect class="cls-2" x="93.89" y="65.73" width="9.39" height="9.38"/><rect class="cls-1" x="93.89" y="56.34" width="9.39" height="9.39"/><rect class="cls-1" x="93.89" y="46.95" width="9.39" height="9.39"/><rect class="cls-2" x="93.89" y="37.56" width="9.39" height="9.39"/><rect class="cls-2" x="93.89" y="28.17" width="9.39" height="9.39"/><rect class="cls-2" x="84.5" y="140.84" width="9.39" height="9.38"/><rect class="cls-2" x="84.5" y="131.45" width="9.39" height="9.39"/><rect class="cls-2" x="84.5" y="122.06" width="9.39" height="9.39"/><rect class="cls-2" x="84.5" y="112.67" width="9.39" height="9.39"/><rect class="cls-1" x="84.5" y="103.28" width="9.39" height="9.39"/><rect class="cls-1" x="84.5" y="93.89" width="9.39" height="9.39"/><rect class="cls-1" x="84.5" y="84.51" width="9.39" height="9.38"/><rect class="cls-2" x="84.5" y="75.11" width="9.39" height="9.4"/><rect class="cls-1" x="84.5" y="65.73" width="9.39" height="9.38"/><rect class="cls-1" x="84.5" y="56.34" width="9.39" height="9.39"/><rect class="cls-2" x="84.5" y="46.95" width="9.39" height="9.39"/><rect class="cls-1" x="84.5" y="37.56" width="9.39" height="9.39"/><rect class="cls-1" x="84.5" y="28.17" width="9.39" height="9.39"/><rect class="cls-2" x="84.5" y="18.78" width="9.39" height="9.39"/><rect class="cls-2" x="75.11" y="140.84" width="9.39" height="9.38"/><rect class="cls-2" x="75.11" y="131.45" width="9.39" height="9.39"/><rect class="cls-2" x="75.11" y="122.06" width="9.39" height="9.39"/><rect class="cls-1" x="75.11" y="112.67" width="9.39" height="9.39"/><rect class="cls-1" x="75.11" y="103.28" width="9.39" height="9.39"/><rect class="cls-1" x="75.11" y="93.89" width="9.39" height="9.39"/><rect class="cls-2" x="75.11" y="84.51" width="9.39" height="9.38"/><rect class="cls-1" x="75.11" y="75.11" width="9.39" height="9.4"/><rect class="cls-1" x="75.11" y="65.73" width="9.39" height="9.38"/><rect class="cls-1" x="75.11" y="56.34" width="9.39" height="9.39"/><rect class="cls-1" x="75.11" y="46.95" width="9.39" height="9.39"/><rect class="cls-2" x="75.11" y="37.56" width="9.39" height="9.39"/><rect class="cls-1" x="75.11" y="28.17" width="9.39" height="9.39"/><rect class="cls-1" x="75.11" y="18.78" width="9.39" height="9.39"/><rect class="cls-2" x="75.11" y="9.4" width="9.39" height="9.38"/><rect class="cls-2" x="65.72" y="140.84" width="9.39" height="9.38"/><rect class="cls-2" x="65.72" y="131.45" width="9.39" height="9.39"/><rect class="cls-1" x="65.72" y="122.06" width="9.39" height="9.39"/><rect class="cls-1" x="65.72" y="112.67" width="9.39" height="9.39"/><rect class="cls-1" x="65.72" y="103.28" width="9.39" height="9.39"/><rect class="cls-1" x="65.72" y="93.89" width="9.39" height="9.39"/><rect class="cls-2" x="65.72" y="84.51" width="9.39" height="9.38"/><rect class="cls-1" x="65.72" y="75.11" width="9.39" height="9.4"/><rect class="cls-1" x="65.72" y="65.73" width="9.39" height="9.38"/><rect class="cls-1" x="65.72" y="56.34" width="9.39" height="9.39"/><rect class="cls-1" x="65.72" y="46.95" width="9.39" height="9.39"/><rect class="cls-1" x="65.72" y="37.56" width="9.39" height="9.39"/><rect class="cls-2" x="65.72" y="28.17" width="9.39" height="9.39"/><rect class="cls-1" x="65.72" y="18.78" width="9.39" height="9.39"/><rect class="cls-1" x="65.72" y="9.4" width="9.39" height="9.38"/><rect class="cls-2" x="65.72" width="9.39" height="9.4"/><rect class="cls-2" x="56.33" y="140.84" width="9.39" height="9.38"/><rect class="cls-2" x="56.33" y="131.45" width="9.39" height="9.39"/><rect class="cls-1" x="56.33" y="122.06" width="9.39" height="9.39"/><rect class="cls-1" x="56.33" y="112.67" width="9.39" height="9.39"/><rect class="cls-1" x="56.33" y="103.28" width="9.39" height="9.39"/><rect class="cls-1" x="56.33" y="93.89" width="9.39" height="9.39"/><rect class="cls-1" x="56.33" y="84.51" width="9.39" height="9.38"/><rect class="cls-1" x="56.33" y="75.11" width="9.39" height="9.4"/><rect class="cls-1" x="56.33" y="65.73" width="9.39" height="9.38"/><rect class="cls-1" x="56.33" y="56.34" width="9.39" height="9.39"/><rect class="cls-1" x="56.33" y="46.95" width="9.39" height="9.39"/><rect class="cls-1" x="56.33" y="37.56" width="9.39" height="9.39"/><rect class="cls-1" x="56.33" y="28.17" width="9.39" height="9.39"/><rect class="cls-1" x="56.33" y="18.78" width="9.39" height="9.39"/><rect class="cls-1" x="56.33" y="9.4" width="9.39" height="9.38"/><rect class="cls-2" x="56.33" width="9.39" height="9.4"/><rect class="cls-2" x="46.95" y="131.45" width="9.38" height="9.39"/><rect class="cls-1" x="46.95" y="122.06" width="9.38" height="9.39"/><rect class="cls-1" x="46.95" y="112.67" width="9.38" height="9.39"/><rect class="cls-1" x="46.95" y="103.28" width="9.38" height="9.39"/><rect class="cls-1" x="46.95" y="93.89" width="9.38" height="9.39"/><rect class="cls-1" x="46.95" y="84.51" width="9.38" height="9.38"/><rect class="cls-1" x="46.95" y="75.11" width="9.38" height="9.4"/><rect class="cls-1" x="46.95" y="65.73" width="9.38" height="9.38"/><rect class="cls-1" x="46.95" y="56.34" width="9.38" height="9.39"/><rect class="cls-1" x="46.95" y="46.95" width="9.38" height="9.39"/><rect class="cls-2" x="46.95" y="37.56" width="9.38" height="9.39"/><rect class="cls-1" x="46.95" y="28.17" width="9.38" height="9.39"/><rect class="cls-1" x="46.95" y="18.78" width="9.38" height="9.39"/><rect class="cls-1" x="46.95" y="9.4" width="9.38" height="9.38"/><rect class="cls-2" x="46.95" width="9.38" height="9.4"/><rect class="cls-2" x="37.55" y="122.06" width="9.4" height="9.39"/><rect class="cls-1" x="37.55" y="112.67" width="9.4" height="9.39"/><rect class="cls-1" x="37.55" y="103.28" width="9.4" height="9.39"/><rect class="cls-1" x="37.55" y="93.89" width="9.4" height="9.39"/><rect class="cls-1" x="37.55" y="84.51" width="9.4" height="9.38"/><rect class="cls-1" x="37.55" y="75.11" width="9.4" height="9.4"/><rect class="cls-1" x="37.55" y="65.73" width="9.4" height="9.38"/><rect class="cls-1" x="37.55" y="56.34" width="9.4" height="9.39"/><rect class="cls-1" x="37.55" y="46.95" width="9.4" height="9.39"/><rect class="cls-1" x="37.55" y="37.56" width="9.4" height="9.39"/><rect class="cls-2" x="37.55" y="28.17" width="9.4" height="9.39"/><rect class="cls-1" x="37.55" y="18.78" width="9.4" height="9.39"/><rect class="cls-1" x="37.55" y="9.4" width="9.4" height="9.38"/><rect class="cls-2" x="37.55" width="9.4" height="9.4"/><rect class="cls-2" x="28.17" y="122.06" width="9.38" height="9.39"/><rect class="cls-1" x="28.17" y="112.67" width="9.38" height="9.39"/><rect class="cls-1" x="28.17" y="103.28" width="9.38" height="9.39"/><rect class="cls-1" x="28.17" y="93.89" width="9.38" height="9.39"/><rect class="cls-1" x="28.17" y="84.51" width="9.38" height="9.38"/><rect class="cls-1" x="28.17" y="75.11" width="9.38" height="9.4"/><rect class="cls-1" x="28.17" y="65.73" width="9.38" height="9.38"/><rect class="cls-2" x="28.17" y="56.34" width="9.38" height="9.39"/><rect class="cls-1" x="28.17" y="46.95" width="9.38" height="9.39"/><rect class="cls-1" x="28.17" y="37.56" width="9.38" height="9.39"/><rect class="cls-2" x="28.17" y="28.17" width="9.38" height="9.39"/><rect class="cls-1" x="28.17" y="18.78" width="9.38" height="9.39"/><rect class="cls-1" x="28.17" y="9.4" width="9.38" height="9.38"/><rect class="cls-2" x="28.17" width="9.38" height="9.4"/><rect class="cls-2" x="18.77" y="112.67" width="9.4" height="9.39"/><rect class="cls-1" x="18.77" y="103.28" width="9.4" height="9.39"/><rect class="cls-1" x="18.77" y="93.89" width="9.4" height="9.39"/><rect class="cls-1" x="18.77" y="84.51" width="9.4" height="9.38"/><rect class="cls-1" x="18.77" y="75.11" width="9.4" height="9.4"/><rect class="cls-1" x="18.77" y="65.73" width="9.4" height="9.38"/><rect class="cls-2" x="18.77" y="56.34" width="9.4" height="9.39"/><rect class="cls-1" x="18.77" y="46.95" width="9.4" height="9.39"/><rect class="cls-1" x="18.77" y="37.56" width="9.4" height="9.39"/><rect class="cls-1" x="18.77" y="28.17" width="9.4" height="9.39"/><rect class="cls-2" x="18.77" y="18.78" width="9.4" height="9.39"/><rect class="cls-2" x="18.77" y="9.4" width="9.4" height="9.38"/><rect class="cls-2" x="9.39" y="103.28" width="9.38" height="9.39"/><rect class="cls-2" x="9.39" y="93.89" width="9.38" height="9.39"/><rect class="cls-1" x="9.39" y="84.51" width="9.38" height="9.38"/><rect class="cls-1" x="9.39" y="75.11" width="9.38" height="9.4"/><rect class="cls-1" x="9.39" y="65.73" width="9.38" height="9.38"/><rect class="cls-2" x="9.39" y="56.34" width="9.38" height="9.39"/><rect class="cls-1" x="9.39" y="46.95" width="9.38" height="9.39"/><rect class="cls-2" x="9.39" y="37.56" width="9.38" height="9.39"/><rect class="cls-2" x="9.39" y="28.17" width="9.38" height="9.39"/><rect class="cls-2" x="9.39" y="18.78" width="9.38" height="9.39"/><rect class="cls-2" y="84.51" width="9.39" height="9.38"/><rect class="cls-2" y="75.11" width="9.39" height="9.4"/><rect class="cls-2" y="65.73" width="9.39" height="9.38"/><rect class="cls-2" y="56.34" width="9.39" height="9.39"/><rect class="cls-2" y="46.95" width="9.39" height="9.39"/></svg>