<?xml version="1.0" encoding="UTF-8"?>
<svg id="Layer_1" data-name="Layer 1" xmlns="http://www.w3.org/2000/svg" width="112.66" height="150.22" viewBox="0 0 112.66 150.22">
  <rect x="103.28" y="140.84" width="9.38" height="9.38" fill="#fff"/>
  <rect x="103.28" y="131.45" width="9.38" height="9.39" fill="#fff"/>
  <rect x="103.28" y="84.51" width="9.38" height="9.38" fill="#fff"/>
  <rect x="103.28" y="75.11" width="9.38" height="9.4" fill="#fff"/>
  <rect x="103.28" y="65.73" width="9.38" height="9.38" fill="#fff"/>
  <rect x="103.28" y="56.34" width="9.38" height="9.39" fill="#fff"/>
  <rect x="103.28" y="46.95" width="9.38" height="9.39" fill="#fff"/>
  <rect x="93.89" y="140.84" width="9.39" height="9.38" fill="#fff"/>
  <rect x="93.89" y="131.45" width="9.39" height="9.39" fill="#fff"/>
  <rect x="93.89" y="122.06" width="9.39" height="9.39" fill="#fff"/>
  <rect x="93.89" y="103.28" width="9.39" height="9.39" fill="#fff"/>
  <rect x="93.89" y="93.89" width="9.39" height="9.39" fill="#fff"/>
  <rect x="93.89" y="65.73" width="9.39" height="9.38" fill="#fff"/>
  <rect x="93.89" y="37.56" width="9.39" height="9.39" fill="#fff"/>
  <rect x="93.89" y="28.17" width="9.39" height="9.39" fill="#fff"/>
  <rect x="84.5" y="140.84" width="9.39" height="9.38" fill="#fff"/>
  <rect x="84.5" y="131.45" width="9.39" height="9.39" fill="#fff"/>
  <rect x="84.5" y="122.06" width="9.39" height="9.39" fill="#fff"/>
  <rect x="84.5" y="112.67" width="9.39" height="9.39" fill="#fff"/>
  <rect x="84.5" y="75.11" width="9.39" height="9.4" fill="#fff"/>
  <rect x="84.5" y="46.95" width="9.39" height="9.39" fill="#fff"/>
  <rect x="84.5" y="18.78" width="9.39" height="9.39" fill="#fff"/>
  <rect x="75.11" y="140.84" width="9.39" height="9.38" fill="#fff"/>
  <rect x="75.11" y="131.45" width="9.39" height="9.39" fill="#fff"/>
  <rect x="75.11" y="122.06" width="9.39" height="9.39" fill="#fff"/>
  <rect x="75.11" y="84.51" width="9.39" height="9.38" fill="#fff"/>
  <rect x="75.11" y="37.56" width="9.39" height="9.39" fill="#fff"/>
  <rect x="75.11" y="9.4" width="9.39" height="9.38" fill="#fff"/>
  <rect x="65.72" y="140.84" width="9.39" height="9.38" fill="#fff"/>
  <rect x="65.72" y="131.45" width="9.39" height="9.39" fill="#fff"/>
  <rect x="65.72" y="84.51" width="9.39" height="9.38" fill="#fff"/>
  <rect x="65.72" y="28.17" width="9.39" height="9.39" fill="#fff"/>
  <rect x="65.72" width="9.39" height="9.4" fill="#fff"/>
  <rect x="56.33" y="140.84" width="9.39" height="9.38" fill="#fff"/>
  <rect x="56.33" y="131.45" width="9.39" height="9.39" fill="#fff"/>
  <rect x="56.33" width="9.39" height="9.4" fill="#fff"/>
  <rect x="46.95" y="131.45" width="9.38" height="9.39" fill="#fff"/>
  <rect x="46.95" y="37.56" width="9.38" height="9.39" fill="#fff"/>
  <rect x="46.95" width="9.38" height="9.4" fill="#fff"/>
  <rect x="37.55" y="122.06" width="9.4" height="9.39" fill="#fff"/>
  <rect x="37.55" y="28.17" width="9.4" height="9.39" fill="#fff"/>
  <rect x="37.55" width="9.4" height="9.4" fill="#fff"/>
  <rect x="28.17" y="122.06" width="9.38" height="9.39" fill="#fff"/>
  <rect x="28.17" y="56.34" width="9.38" height="9.39" fill="#fff"/>
  <rect x="28.17" y="28.17" width="9.38" height="9.39" fill="#fff"/>
  <rect x="28.17" width="9.38" height="9.4" fill="#fff"/>
  <rect x="18.77" y="112.67" width="9.4" height="9.39" fill="#fff"/>
  <rect x="18.77" y="56.34" width="9.4" height="9.39" fill="#fff"/>
  <rect x="18.77" y="18.78" width="9.4" height="9.39" fill="#fff"/>
  <rect x="18.77" y="9.4" width="9.4" height="9.38" fill="#fff"/>
  <rect x="9.39" y="103.28" width="9.38" height="9.39" fill="#fff"/>
  <rect x="9.39" y="93.89" width="9.38" height="9.39" fill="#fff"/>
  <rect x="9.39" y="56.34" width="9.38" height="9.39" fill="#fff"/>
  <rect x="9.39" y="37.56" width="9.38" height="9.39" fill="#fff"/>
  <rect x="9.39" y="28.17" width="9.38" height="9.39" fill="#fff"/>
  <rect x="9.39" y="18.78" width="9.38" height="9.39" fill="#fff"/>
  <rect y="84.51" width="9.39" height="9.38" fill="#fff"/>
  <rect y="75.11" width="9.39" height="9.4" fill="#fff"/>
  <rect y="65.73" width="9.39" height="9.38" fill="#fff"/>
  <rect y="56.34" width="9.39" height="9.39" fill="#fff"/>
  <rect y="46.95" width="9.39" height="9.39" fill="#fff"/>
</svg>