<?xml version="1.0" encoding="UTF-8"?>
<svg id="Layer_2" data-name="Layer 2" xmlns="http://www.w3.org/2000/svg" width="313.92" height="310.9" viewBox="0 0 313.92 310.9">
  <defs>
    <style>
      .cls-1 {
        fill: #232324;
      }

      .cls-1, .cls-2 {
        stroke-width: 0px;
      }

      .cls-2 {
        fill: #fcfcfc;
      }
    </style>
  </defs>
  <g id="Layer_1-2" data-name="Layer 1">
    <g>
      <path class="cls-2" d="M162.04.08c6.34-.25,12.78.03,18.98,1.5,3.69.87,41.63,17.28,46.95,19.98,6.91,3.51,58.9,38.19,61.68,41.7,6.2,7.83,4.74,20.56,6.49,29.97,8.66,46.53,25.23,45.88,13.98,91.4-2.89,11.71-11.34,34.74-17.48,44.95-20.43,33.95-88.07,78.49-127.61,81.16-42.01,2.84-100.85-33.32-128.11-64.18C13.28,219.79-6.42,169.69,1.97,134.18c1.49-6.31,6.59-15.6,8.49-21.48,7.32-22.68,6.27-30.63,22.48-52.44,19.22-25.87,29.13-23.1,53.19-34.21C110.92,14.6,129.94,1.35,162.04.08Z"/>
      <path class="cls-1" d="M167.04,8.07c15.08-.51,29.36,7.8,43.45,12.49,9.71,3.91,71.32,42.4,74.17,45.7,7.86,9.09,5.23,27.13,7.49,38.46,1.89,9.47,14.51,35.26,15.98,44.45,4.43,27.7-15.44,70.65-32.46,92.4-18.47,23.59-63,52.55-92.15,59.19-44.24,10.07-84.36-10.65-117.87-37.96C33.64,236.7-.87,179.49,9.96,137.18c1.31-5.12,6.05-14.57,7.99-20.98,5.63-18.64,4.49-24.66,15.48-42.95,7.55-12.56,14.51-21.91,27.72-28.72,4.11-2.12,48.7-21.16,54.94-23.47,13.51-5.01,37.02-12.52,50.94-12.99Z"/>
      <path class="cls-2" d="M80.63,190.37c4.27-.49,15.56,11.53,19.98,14.48,11.64,7.78,44.65,19.78,58.44,20.98,8.63.75,29.87-.26,38.46-2,24.94-5.04,27.39-22.55,35.46-18.48,6.02,3.04-3.91,17.2-7.99,20.48-14.2,11.42-86.26,20.64-90.9,19.98-1.65-.23-28.53-13.65-29.97-14.48-12.55-7.24-18.59-23.47-28.22-34.71-.43-2.31,2.52-5.99,4.74-6.24Z"/>
      <g>
        <path class="cls-2" d="M214.49,54.52c4.47-.38,9.86,7.18,10.99,7.49,2.47.68,8.63-2.26,10.99-1.5,2.23.72,4.46,11.69,6.99,12.49,2.09.66,15.55-1.28,17.23,6.74,1.62,7.72-6.52,9.27-6.49,10.49.03,1.5,19,9.17-1,22.97,6.79,2.29,23.03.94,21.48,11.99-1.49,10.58-18.93,2.38-20.23,3.25,7.06,17.32-5.02,23.26-16.98,10.99-2.07-.13-3.76,10.83-10.49,11.99-8.15,1.4-11.14-7.44-13.49-7.99-1.41-.33-8.15,2.38-10.99,2-2.18-.3-20.85-20.73-21.23-22.23-.41-1.66-.2-12.48-1-16.98-.75-4.21-5.02-14.61-4.5-17.98.22-1.43,11.84-23.06,14.73-24.72,2.32-1.34,8.49-2.35,11.49-3.5,2.04-.78,11.81-5.44,12.49-5.49Z"/>
        <path class="cls-1" d="M214.99,79.49c5.62-.28,22.96,16.39,27.72,21.23-2.72,2.29-10.14,12.39-11.74,13.24-.82.43-14.19,3.54-17.48,5.99-2.78-2.1-18.85-3.67-19.23-5.74,7.42-14.64,2.71-11.78-3.5-24.97,3.73-1.98,22.15-9.64,24.22-9.74Z"/>
      </g>
      <g>
        <path class="cls-2" d="M91.62,58.02c3.59-.81,15.54,3.42,19.98,4,.82.11,8.53-3.88,14.73,4.25,7.42,9.71-.66,23.99,0,25.97.57,1.7,28.25,8.82,3,23.97,8.75,22.92-12.32,13.8-13.74,14.23-2.99.92-15.8,27.35-30.47,18.98-1.88-1.07-12.13-12.94-13.98-13.98-2.79-1.58-14.97-2.03-14.23-11.74.13-1.67,2.03-4.73,2-4.99-.16-1.19-11.45-8.75-11.49-10.49,12-27.14,11.08-17.31,26.22-30.22,9.03-7.7,15.66-19.46,17.98-19.98Z"/>
        <path class="cls-1" d="M110.1,80.49l1.75.25c-12.4,21.65.42,31.1-21.73,54.19-5.13-15.97-16.78-16.4-16.73-19.73,3.08-3.48,13.78-30.27,15.23-31.22.91-.59,18.25-1.86,21.48-3.5Z"/>
      </g>
    </g>
  </g>
</svg>